<?xml version="1.0" encoding="iso-8859-1"?>
<!-- Generator: Adobe Illustrator 18.0.0, SVG Export Plug-In . SVG Version: 6.00 Build 0)  -->
<!DOCTYPE svg PUBLIC "-//W3C//DTD SVG 1.1//EN" "http://www.w3.org/Graphics/SVG/1.1/DTD/svg11.dtd">
<svg version="1.1" id="Capa_1" xmlns="http://www.w3.org/2000/svg" xmlns:xlink="http://www.w3.org/1999/xlink" x="0px" y="0px"
	 viewBox="0 0 473.311 473.311" style="enable-background:new 0 0 473.311 473.311;" xml:space="preserve">
<g>
	<path d="M193.217,192.233c-4.694-1.642-9.827,0.831-11.469,5.521l-13.288,37.965c-1.642,4.691,0.83,9.826,5.521,11.468
		c0.984,0.344,1.987,0.508,2.974,0.508c3.718,0,7.197-2.322,8.495-6.029l13.288-37.965
		C200.38,199.01,197.909,193.875,193.217,192.233z"/>
	<path d="M425.125,228.427c19.83-54.452,23.789-113.103,11.438-169.761L425.318,7.084c-0.743-3.406-3.385-6.076-6.782-6.855
		c-3.399-0.781-6.94,0.474-9.091,3.215L303.368,138.576H169.943L63.867,3.444c-2.152-2.741-5.692-3.996-9.091-3.215
		c-3.397,0.779-6.039,3.45-6.781,6.855L36.749,58.666c-12.352,56.657-8.392,115.308,11.438,169.761l-11.464,104.61
		c-2.511,22.91,8.779,45.131,28.764,56.611c0.111,0.063,0.223,0.125,0.336,0.184l151.89,78.86c0,0,0,0,0.001,0
		c5.931,3.079,12.437,4.619,18.942,4.619s13.012-1.54,18.942-4.619l151.891-78.86c0.113-0.059,0.225-0.12,0.336-0.184
		c19.984-11.48,31.274-33.701,28.764-56.611L425.125,228.427z M332.392,263.482c-0.143,16.757-13.809,30.346-30.594,30.346
		c-2.638,0-5.208-0.329-7.694-0.972l0.254-0.733c0.012-0.034,0.023-0.068,0.035-0.103c5.108-15.324,17.871-26.36,33.31-28.802
		C328.826,263.041,330.434,263.143,332.392,263.482z M324.891,245.439c-22.083,3.493-40.301,19.138-47.556,40.835l-2.428,7.003
		c-4.542-8.409-5.612-18.434-2.551-27.998l5.807-18.148c1.515-4.734-1.096-9.8-5.829-11.314c-4.739-1.518-9.8,1.096-11.315,5.829
		l-5.807,18.147c-6.161,19.254-1.205,39.771,12.592,53.97l-10.354,29.862c-0.224-0.009-0.443-0.034-0.669-0.034h-40.248
		c-0.226,0-0.446,0.025-0.67,0.034l-10.355-29.862c13.798-14.199,18.754-34.716,12.593-53.97l-5.807-18.148
		c-1.515-4.734-6.578-7.346-11.315-5.829c-4.734,1.515-7.344,6.581-5.828,11.315l5.807,18.148c3.061,9.564,1.99,19.59-2.553,27.999
		l-2.428-7.001c-7.252-21.699-25.47-37.344-47.556-40.837c-11.987-1.896-30.733,6.296-38.392,9.987
		c-20.723,9.188-38.355,23.646-51.293,41.981l7.026-64.113c63.531-30.384,95.01-65.205,104.254-76.718h133.281
		c9.245,11.513,40.723,46.334,104.254,76.718l7.027,64.114c-12.934-18.331-30.561-32.786-51.291-41.982
		C355.696,251.766,336.907,243.54,324.891,245.439z M238.023,370.521c-0.244,0.499-0.74,0.808-1.296,0.808h-0.144
		c-0.547,0-1.056-0.317-1.295-0.807c-1.861-3.803-4.834-6.886-8.408-8.932h19.551C242.857,363.636,239.884,366.718,238.023,370.521z
		 M145.607,263.218c15.438,2.441,28.202,13.478,33.31,28.801c0.012,0.034,0.022,0.069,0.035,0.103l0.256,0.738
		c-2.483,0.641-5.051,0.968-7.688,0.968c-16.791,0-30.461-13.59-30.604-30.347C142.873,263.142,144.483,263.04,145.607,263.218z
		 M140.367,130.05l13.735,17.497c-2.465,2.905-6.081,6.914-10.936,11.694C143.522,149.465,142.356,139.526,140.367,130.05z
		 M330.145,159.24c-4.855-4.779-8.471-8.789-10.936-11.693l13.736-17.498C330.955,139.526,329.789,149.464,330.145,159.24z
		 M411.801,29.593l7.174,32.907c11.066,50.762,8.218,103.221-8.181,152.353c-25.128-12.431-44.522-25.437-58.614-36.411
		c-6.457-15.196-4.582-34.124-0.156-51.106c5.66-21.721,15.981-41.949,29.84-59.605L411.801,29.593z M54.337,62.5l7.174-32.907
		L91.448,67.73c13.858,17.654,24.178,37.881,29.839,59.6c4.426,16.984,6.303,35.915-0.156,51.113
		c-14.092,10.973-33.486,23.979-58.614,36.41C46.118,165.718,43.27,113.26,54.337,62.5z M399.015,373.95l-151.712,78.768
		c-6.666,3.461-14.627,3.461-21.297,0h0.001L74.296,373.949c-9.859-5.722-16.608-15.247-18.967-26.012
		c-1.312-5.987-0.021-12.253,3.304-17.402l12.362-19.14c11.256-17.429,27.316-31.111,46.43-39.559
		c0.098-0.043,0.275-0.126,0.371-0.172c1.829-0.883,3.669-1.712,5.492-2.489c2.948,24.002,23.447,42.652,48.232,42.652
		c4.608,0,9.186-0.681,13.587-1.957l12.357,35.637c1.633,4.709,2.463,9.659,2.454,14.644l0,0.054
		c0,9.161,7.452,16.614,16.613,16.615c1.108,0,2.104,0.622,2.592,1.617c1.531,3.127,3.875,5.721,6.693,7.598
		c-3.253,7.656-9.904,13.468-18.291,15.534l-19.697,4.853c-4.653,1.146-7.849,5.659-7.007,10.376
		c0.923,5.171,5.986,8.412,11.016,7.175l19.994-4.926c10.139-2.499,18.771-8.268,24.825-16.114
		c6.053,7.847,14.686,13.616,24.825,16.114l19.994,4.926c0.724,0.178,1.447,0.263,2.16,0.263c4.143,0,7.899-2.881,8.8-7.151
		c1.014-4.803-2.218-9.497-6.985-10.671l-19.663-4.844c-8.388-2.067-15.039-7.878-18.292-15.535
		c2.818-1.877,5.162-4.471,6.692-7.598c0.487-0.996,1.483-1.617,2.592-1.617c9.161,0,16.614-7.453,16.614-16.615l0-0.055
		c-0.008-4.985,0.821-9.936,2.454-14.645l12.357-35.636c4.404,1.278,8.985,1.959,13.593,1.959c24.781,0,45.275-18.651,48.223-42.653
		c1.824,0.777,3.666,1.606,5.496,2.489c0.091,0.044,0.263,0.125,0.354,0.166c19.129,8.455,35.189,22.136,46.445,39.566l12.362,19.14
		c3.326,5.149,4.617,11.415,3.304,17.403C415.624,358.702,408.874,368.228,399.015,373.95z"/>
	<path d="M291.562,197.755c-1.643-4.692-6.775-7.164-11.469-5.521c-4.691,1.642-7.163,6.776-5.521,11.468l13.288,37.965
		c1.298,3.708,4.777,6.029,8.495,6.029c0.986,0,1.989-0.164,2.974-0.508c4.691-1.642,7.163-6.776,5.521-11.468L291.562,197.755z"/>
</g>
<g>
</g>
<g>
</g>
<g>
</g>
<g>
</g>
<g>
</g>
<g>
</g>
<g>
</g>
<g>
</g>
<g>
</g>
<g>
</g>
<g>
</g>
<g>
</g>
<g>
</g>
<g>
</g>
<g>
</g>
</svg>
